<svg width="101" height="16" fill="none" xmlns="http://www.w3.org/2000/svg"><path d="M.7 15H.4l-.1-.4v-13l.1-.4.3-.1h1.9l.3.1.2.4v11.1h6.3l.4.1.1.4v1.4l-.1.4H.7zm14 .3c-.7 0-1.4-.2-2-.4-.5-.3-1-.7-1.3-1.1-.3-.5-.5-1-.5-1.6 0-.9.4-1.6 1.1-2.2.8-.5 1.8-1 3-1.1l2.8-.4V8c0-.6-.1-1-.4-1.4-.3-.3-.8-.4-1.5-.4a2 2 0 00-1 .3 3.3 3.3 0 00-1 .8l-.3.2h-1.5l-.4-.1v-.3c0-.4 0-.7.4-1.2.3-.4.8-.8 1.5-1 .6-.4 1.4-.5 2.4-.5 1.5 0 2.7.3 3.4 1 .7.7 1 1.7 1 2.8V15l-.4.2h-1.6c-.2 0-.3 0-.4-.2l-.1-.3v-.8c-.3.4-.7.8-1.3 1-.5.3-1.2.5-2 .5zm.6-2c.8 0 1.4-.2 1.8-.6.5-.5.7-1.2.7-2.1V10l-2 .4c-.8 0-1.3.3-1.7.5-.4.3-.6.6-.6 1s.2.8.5 1c.4.3.8.4 1.3.4zm11.7 2c-1 0-1.9-.2-2.5-.5-.7-.3-1.2-.6-1.6-1-.3-.4-.4-.8-.4-1l.1-.4.3-.1h1.6l.3.1.4.4.8.5 1 .2c.6 0 1-.2 1.4-.4.3-.2.5-.5.5-.8 0-.3 0-.6-.3-.7-.1-.2-.4-.4-.8-.5l-1.8-.4c-1-.3-2-.7-2.5-1.1-.5-.5-.8-1.2-.8-2 0-.5.2-1 .5-1.5s.8-.9 1.4-1.2c.7-.3 1.4-.4 2.3-.4.9 0 1.7.1 2.3.4.7.3 1.2.6 1.5 1 .4.4.5.8.5 1l-.1.4-.3.1h-1.5l-.3-.1-.5-.4a2.2 2.2 0 00-1.6-.6c-.5 0-.9.1-1.2.3a1 1 0 00-.4.9c0 .2 0 .4.2.6l.8.4L28 9c1.3.2 2.2.6 2.8 1.2.5.5.8 1.1.8 2 0 .8-.4 1.6-1.2 2.2-.8.6-2 .9-3.4.9zm7.2-.2c-.1 0-.3 0-.4-.2V1.4 1l.4-.1h1.6l.4.1.1.4v13.2l-.1.3-.4.2h-1.6zm9.3.2c-1.5 0-2.7-.5-3.6-1.3-.8-.9-1.3-2-1.4-3.6v-1c.1-1.6.6-2.8 1.4-3.6 1-.9 2.1-1.3 3.6-1.3s2.7.5 3.6 1.4c.9 1 1.3 2.3 1.3 3.9v.4l-.1.3-.4.2h-6.6v.1c0 .7.2 1.4.6 1.9.3.5.9.7 1.5.7.8 0 1.5-.3 2-.9 0-.2.2-.2.2-.3H48l.1.3c0 .4-.2.7-.6 1.2-.3.4-.9.8-1.6 1.1a6 6 0 01-2.4.5zM45.7 9c0-.9-.2-1.5-.6-2a2 2 0 00-1.6-.7 2 2 0 00-1.7.7 3 3 0 00-.5 2h4.4zm8.8 6.3c-1 0-1.9-.2-2.6-.5-.6-.3-1.1-.6-1.5-1l-.5-1c0-.2 0-.3.2-.4l.3-.1H52l.3.1.4.4.8.5 1 .2c.6 0 1-.2 1.3-.4.4-.2.6-.5.6-.8 0-.3-.1-.6-.3-.7-.1-.2-.4-.4-.8-.5l-1.8-.4c-1.1-.3-2-.7-2.5-1.1-.5-.5-.8-1.2-.8-2 0-.5.2-1 .5-1.5s.8-.9 1.4-1.2c.6-.3 1.4-.4 2.3-.4.9 0 1.7.1 2.3.4.7.3 1.2.6 1.5 1l.5 1-.1.4-.3.1h-1.5l-.4-.1-.4-.4a2.2 2.2 0 00-1.6-.6c-.5 0-1 .1-1.2.3a1 1 0 00-.4.9c0 .2 0 .4.2.6l.8.4 1.7.5c1.3.2 2.2.6 2.8 1.2.5.5.8 1.1.8 2 0 .8-.4 1.6-1.2 2.2-.8.6-2 .9-3.4.9zm10.8-.2c-.5 0-.7-.2-.9-.6l-4-12.8v-.2-.3l.4-.1h2.4l.5.1.3.4 2.8 9.2 2.8-9.2.3-.4.4-.1h2.5l.3.1.2.3v.2L69 14.5c0 .4-.4.6-.8.6h-3zm10.3 0c-.1 0-.2 0-.3-.2l-.2-.3v-13c0-.2 0-.3.2-.4l.3-.1h5.6c1.7 0 3 .4 4 1.2 1 .7 1.5 1.9 1.5 3.4s-.5 2.6-1.4 3.4c-1 .7-2.4 1.1-4 1.1h-2.5v4.4l-.1.3-.4.2h-2.7zm5.5-7.7c.6 0 1-.1 1.4-.4.3-.3.5-.8.5-1.3 0-.6-.2-1-.5-1.3-.3-.4-.8-.5-1.4-.5h-2.3v3.5H81zm8 7.7c-.1 0-.2 0-.3-.2l-.2-.3v-13c0-.2 0-.3.2-.4l.3-.1h2.2c.3 0 .5.1.6.4L97 9V1.6v-.4l.4-.1h2.4l.4.1.1.4v13l-.1.3-.4.2h-2.1a.7.7 0 01-.7-.4L92 7.3v7.3l-.1.3-.4.2h-2.4z" fill="#0B132A"/></svg>